<?xml version="1.0" encoding="UTF-8"?>
<svg version="1.1" xmlns="http://www.w3.org/2000/svg" width="500" height="500">
<path d="M0 0 C165 0 330 0 500 0 C500 165 500 330 500 500 C335 500 170 500 0 500 C0 335 0 170 0 0 Z " fill="#FEA18E" transform="translate(0,0)"/>
<path d="M0 0 C1.72974441 0.00015918 3.45949355 0.0058569 5.18920898 0.01586914 C6.09783188 0.01728409 7.00645477 0.01869904 7.94261169 0.02015686 C10.85687494 0.02577346 13.77106254 0.03832874 16.68530273 0.05102539 C18.65600475 0.05603825 20.62670797 0.06060153 22.59741211 0.06469727 C27.43923832 0.07574828 32.28100768 0.09302401 37.12280273 0.11352539 C37.1331102 1.28672333 37.14341766 2.45992126 37.15403748 3.66867065 C37.25163856 14.70520975 37.35435983 25.74169079 37.46214199 36.7781353 C37.51739282 42.45257469 37.57081627 48.12701922 37.62011719 53.80151367 C37.66772887 59.27394333 37.7200705 64.74630888 37.77574348 70.21866226 C37.79618154 72.31030819 37.81489218 74.40197171 37.83187675 76.49364853 C37.85588866 79.41502007 37.88594759 82.33626971 37.91748047 85.25756836 C37.92611366 86.56523666 37.92611366 86.56523666 37.93492126 87.89932251 C37.86955385 92.14148333 37.86955385 92.14148333 39.12280273 96.11352539 C41.10280273 96.11352539 43.08280273 96.11352539 45.12280273 96.11352539 C45.45280273 64.43352539 45.78280273 32.75352539 46.12280273 0.11352539 C99.49745438 0.07322236 99.49745438 0.07322236 121.78881836 0.06469727 C137.20719738 0.05875349 152.62557095 0.05174965 168.04394531 0.03808594 C179.27086184 0.0281414 190.49777398 0.02167251 201.72469479 0.0194369 C207.6732491 0.0181294 213.62179082 0.01504108 219.57034111 0.00779533 C225.16229466 0.00103874 230.75423035 -0.00109231 236.34618759 0.00041771 C238.40500421 0.00014122 240.4638214 -0.00186603 242.52263451 -0.00568008 C245.32052689 -0.0106117 248.11835073 -0.00947488 250.91624451 -0.00672913 C251.74210365 -0.00964197 252.5679628 -0.01255481 253.41884798 -0.01555592 C259.00868152 -0.00059582 259.00868152 -0.00059582 260.12280273 1.11352539 C260.22041586 3.44118906 260.25278253 5.73915165 260.24305725 8.067276 C260.24391327 8.80138702 260.24476929 9.53549805 260.24565125 10.29185486 C260.24731635 12.77809011 260.24176683 15.26425911 260.23632812 17.75048828 C260.23602203 19.55282559 260.23615487 21.35516301 260.23669338 23.15750027 C260.23691994 28.00148194 260.23110741 32.84543911 260.22408295 37.68941498 C260.21840475 42.22820618 260.21812074 46.76699131 260.21740723 51.30578613 C260.21215159 64.59586915 260.19819055 77.88594758 260.18530273 91.17602539 C260.16467773 120.85540039 260.14405273 150.53477539 260.12280273 181.11352539 C189.50280273 181.11352539 118.88280273 181.11352539 46.12280273 181.11352539 C45.79280273 161.64352539 45.46280273 142.17352539 45.12280273 122.11352539 C44.06321504 120.83029992 44.06321504 120.83029992 41.62280273 120.98852539 C39.18239043 120.83029992 39.18239043 120.83029992 38.12280273 122.11352539 C37.99782659 124.60751604 37.93677393 127.07520868 37.91748047 129.57080078 C37.90758087 130.35123245 37.89768127 131.13166412 37.88748169 131.93574524 C37.85577498 134.52752602 37.83107323 137.11932516 37.80639648 139.71118164 C37.78583486 141.50337717 37.76483861 143.29556776 37.74342346 145.0877533 C37.68812097 149.81417859 37.6387479 154.54064824 37.59057617 159.26715088 C37.54042069 164.08642544 37.48470362 168.90563527 37.42944336 173.72485352 C37.32176184 183.1876889 37.22033922 192.65058039 37.12280273 202.11352539 C31.30208651 202.13817177 25.48140039 202.15635969 19.66064453 202.16845703 C17.67886832 202.17349806 15.69709585 202.18033077 13.71533203 202.18896484 C10.87328165 202.20104054 8.03128026 202.20675584 5.18920898 202.21118164 C3.85171349 202.21892357 3.85171349 202.21892357 2.48719788 202.2268219 C0.36539672 202.22701716 -1.75630506 202.17562569 -3.87719727 202.11352539 C-5.62476241 200.36596025 -5.00224057 198.08336642 -5.01094067 195.75448322 C-5.00759459 194.59259118 -5.00759459 194.59259118 -5.00418091 193.40722656 C-5.0057409 192.59036723 -5.00730089 191.7735079 -5.00890815 190.93189526 C-5.01292158 188.17341028 -5.00972719 185.4149796 -5.0065918 182.65649414 C-5.00794569 180.68755053 -5.00972555 178.71860718 -5.01190186 176.74966431 C-5.01647766 171.38618479 -5.01468603 166.02272441 -5.01152277 160.65924454 C-5.00899992 155.059613 -5.01133649 149.45998316 -5.01290894 143.86035156 C-5.01473085 134.45483098 -5.01232374 125.04931823 -5.00756836 115.64379883 C-5.0021257 104.75281362 -5.00388834 93.86184714 -5.00939476 82.97086239 C-5.01392526 73.63841815 -5.01457675 64.30597957 -5.0119561 54.97353458 C-5.01039297 49.39164485 -5.01020052 43.80976393 -5.01349258 38.22787476 C-5.01637038 32.98145034 -5.01439729 27.73505017 -5.00859833 22.48862839 C-5.00727024 20.55720434 -5.00766567 18.62577827 -5.00986099 16.69435501 C-5.01257059 14.06948337 -5.00919373 11.44469075 -5.00418091 8.81982422 C-5.00641163 8.04522952 -5.00864235 7.27063482 -5.01094067 6.47256756 C-4.98730636 0.14602969 -4.98730636 0.14602969 0 0 Z " fill="#C3E4F1" transform="translate(121.877197265625,73.886474609375)"/>
<path d="M0 0 C1.10994928 -0.00765109 2.21989855 -0.01530219 3.36348265 -0.02318513 C7.06662883 -0.04375122 10.76914936 -0.03587912 14.47233582 -0.02792358 C17.13398274 -0.03662186 19.79558449 -0.04686125 22.45721436 -0.05889893 C28.92710612 -0.08434142 35.39683168 -0.08798675 41.86676506 -0.0832984 C47.12867072 -0.07972568 52.39052611 -0.08324494 57.65242577 -0.09174728 C58.40263994 -0.09293766 59.15285411 -0.09412804 59.92580205 -0.09535449 C61.45010347 -0.09777812 62.97440489 -0.10020638 64.4987063 -0.10263924 C78.78017732 -0.12437084 93.0615538 -0.1200747 107.34303012 -0.10786955 C120.39038738 -0.09753497 133.43744583 -0.12003529 146.48474399 -0.15806599 C159.90062233 -0.19686944 173.31635947 -0.21332652 186.73229426 -0.20581949 C194.25673711 -0.20200216 201.78092575 -0.20690436 209.30532265 -0.23524857 C215.71170747 -0.25913814 222.11768165 -0.26181775 228.52407245 -0.23766823 C231.78863402 -0.22593249 235.0522951 -0.22685906 238.3168335 -0.24767303 C265.18640413 -0.40659083 265.18640413 -0.40659083 274.65714741 8.35832787 C281.98127776 16.0790422 282.81693752 24.69392495 282.83291626 34.9511261 C282.84054799 36.18471374 282.84054799 36.18471374 282.8483339 37.44322234 C282.86396647 40.18501656 282.87255892 42.9267846 282.88102722 45.66860962 C282.89057295 47.64029605 282.90046442 49.61198084 282.91067505 51.58366394 C282.94197089 58.04595981 282.96231378 64.50826821 282.98088074 70.97061157 C282.98417806 72.07181595 282.98747538 73.17302033 282.99087262 74.30759454 C283.02164409 84.70076955 283.04833799 95.09394761 283.0652914 105.48715496 C283.08719694 118.75778911 283.12918636 132.02801872 283.19872898 145.29849118 C283.24602877 154.64311389 283.27023274 163.98762765 283.27748829 173.33236629 C283.28243433 178.90744425 283.2974169 184.48206539 283.33723259 190.05701256 C283.37421903 195.30456577 283.38246914 200.55140342 283.36922646 205.79906273 C283.3692802 207.71783823 283.3794926 209.63664646 283.40097809 211.55530167 C283.52519985 223.28119112 283.05486476 233.03172888 275.04878902 242.42649364 C268.25484363 248.84191393 260.25137188 251.12219299 251.1134491 251.06729126 C250.2050528 251.07762894 249.29665649 251.08796661 248.36073303 251.09861755 C245.39018073 251.12786297 242.42031518 251.12954085 239.44963074 251.13076782 C237.37739782 251.1457618 235.30517679 251.16249149 233.23297119 251.18087769 C227.80298795 251.22442651 222.3731659 251.24452269 216.94303894 251.25961304 C211.39240538 251.2792291 205.84194475 251.32119404 200.29142761 251.36123657 C189.41843424 251.43640365 178.54547983 251.48677685 167.67228699 251.52139282 C168.7182282 253.50806306 169.78859589 255.48188808 170.86930847 257.44985962 C171.46275558 258.55033127 172.0562027 259.65080292 172.66763306 260.78462219 C174.40783696 263.67925518 174.40783696 263.67925518 177.17230225 264.47789001 C179.75849073 264.68503051 182.15264753 264.58501403 184.73478699 264.33389282 C193.50976538 263.67885009 193.50976538 263.67885009 196.61125183 265.92666626 C198.93813679 268.48823556 200.43861985 270.63957756 201.32853699 273.99795532 C200.9609199 279.05269033 200.52777664 283.15986054 197.29728699 287.27139282 C193.94747379 289.84817221 190.11805904 289.65248914 186.03059387 289.67529297 C184.88102707 289.68389343 183.73146027 289.6924939 182.54705811 289.70135498 C180.6611924 289.7077449 180.6611924 289.7077449 178.73722839 289.71426392 C177.39663483 289.72216956 176.05604336 289.7304388 174.7154541 289.73904419 C170.31827307 289.76520303 165.92108278 289.78056212 161.52384949 289.79483032 C160.00839101 289.80019186 158.49293258 289.80556937 156.97747421 289.81096268 C150.67395413 289.83257922 144.37043655 289.85131636 138.06688881 289.86258507 C129.03999325 289.87883042 120.01352762 289.91203594 110.98679411 289.96898592 C104.63507985 290.00769119 98.28348057 290.02721821 91.93165147 290.03250563 C88.13965453 290.03615731 84.34811681 290.04815889 80.55624771 290.08060837 C76.98887193 290.11070132 73.42223297 290.11699717 69.85475731 290.10522461 C67.92595901 290.10489901 65.99720608 290.12935469 64.068573 290.15460205 C54.60972196 290.08649018 54.60972196 290.08649018 50.91017151 287.10992432 C47.36158282 283.00531861 47.39622674 280.34763435 47.44963074 275.06826782 C47.74756307 271.66034008 48.76699521 269.34404731 50.67228699 266.52139282 C53.94205466 264.34154771 54.58814563 264.32487779 58.31291199 264.52920532 C59.21912292 264.54467407 60.12533386 264.56014282 61.05900574 264.57608032 C62.95361317 264.62260547 64.84770056 264.70800149 66.73869324 264.83389282 C69.80489111 264.84256665 71.80675548 264.64587737 74.67228699 263.52139282 C76.81295442 260.76412026 76.81295442 260.76412026 78.49552917 257.43887329 C79.09854858 256.33703705 79.70156799 255.23520081 80.32286072 254.09997559 C80.76817139 253.24904327 81.21348206 252.39811096 81.67228699 251.52139282 C80.51685394 251.5199678 79.3614209 251.51854279 78.17097473 251.51707458 C67.25451875 251.5003676 56.33843378 251.45748084 45.42217445 251.38930225 C39.81066726 251.3550872 34.19943075 251.32993076 28.58781433 251.32583618 C23.16699867 251.32154155 17.74679306 251.29298172 12.32616806 251.24796104 C10.26348302 251.23502333 8.20072484 251.23066507 6.1380043 251.23523903 C-6.58569378 251.25687151 -16.30467612 251.1419582 -26.20271301 242.27139282 C-31.93413909 235.89334461 -33.93189145 229.0422003 -33.84237671 220.60990906 C-33.84932224 219.759896 -33.85626777 218.90988294 -33.86342376 218.03411192 C-33.88159252 215.21066939 -33.87145794 212.38807678 -33.86116028 209.56460571 C-33.86822387 207.530262 -33.87697073 205.49592354 -33.88726807 203.46159363 C-33.90972211 197.95327982 -33.90683159 192.4452539 -33.8979466 186.93691182 C-33.89282752 182.33206983 -33.90013674 177.7272815 -33.90741867 173.12244505 C-33.924405 162.25643764 -33.92086448 151.39057071 -33.90412903 140.52456665 C-33.88720685 129.32785182 -33.90304667 118.13152683 -33.93535191 106.93485457 C-33.96207124 97.30824024 -33.96931751 87.6817471 -33.96083683 78.05509943 C-33.95591476 72.31143091 -33.95808454 66.56799693 -33.97862434 60.82435799 C-33.99701822 55.42248533 -33.99097706 50.02117228 -33.96642494 44.61932945 C-33.96142896 42.64169212 -33.96487516 40.66401187 -33.97757339 38.686409 C-34.10122018 17.7684055 -34.10122018 17.7684055 -26.39658451 9.43188572 C-18.74133572 1.91712046 -10.46011794 -0.07721603 0 0 Z M-8.32771301 25.52139282 C-8.42770758 28.09889047 -8.46212102 30.64965776 -8.45469666 33.22769165 C-8.45625665 34.04455098 -8.45781664 34.86141031 -8.4594239 35.70302296 C-8.46343733 38.46150793 -8.46024294 41.21993862 -8.45710754 43.97842407 C-8.45846143 45.94736768 -8.46024129 47.91631104 -8.4624176 49.88525391 C-8.46699341 55.24873343 -8.46520177 60.6121938 -8.46203852 65.97567368 C-8.45951567 71.57530521 -8.46185224 77.17493505 -8.46342468 82.77456665 C-8.4652466 92.18008724 -8.46283949 101.58559999 -8.45808411 110.99111938 C-8.45264145 121.88210459 -8.45440409 132.77307107 -8.45991051 143.66405582 C-8.46444101 152.99650006 -8.4650925 162.32893865 -8.46247184 171.66138363 C-8.46090872 177.24327336 -8.46071626 182.82515428 -8.46400833 188.40704346 C-8.46688613 193.65346787 -8.46491304 198.89986804 -8.45911407 204.14628983 C-8.45778598 206.07771387 -8.45818141 208.00913994 -8.46037674 209.9405632 C-8.46308634 212.56543484 -8.45970947 215.19022747 -8.45469666 217.81509399 C-8.45692738 218.58968869 -8.4591581 219.36428339 -8.46145642 220.16235065 C-8.76401723 223.63253076 -8.76401723 223.63253076 -7.32771301 226.52139282 C-4.29793497 226.61010555 -1.29104279 226.63658633 1.73869324 226.61904907 C2.64731613 226.61763412 3.55593903 226.61621918 4.49209595 226.61476135 C7.40635919 226.60914475 10.3205468 226.59658947 13.23478699 226.58389282 C15.20548901 226.57887996 17.17619222 226.57431668 19.14689636 226.57022095 C23.98872257 226.55916993 28.83049194 226.5418942 33.67228699 226.52139282 C33.68259445 225.52136734 33.69290192 224.52134186 33.70352173 223.49101257 C33.80108502 214.0876451 33.90380245 204.68434633 34.01162624 195.28109074 C34.06689826 190.44625745 34.12032496 185.61141818 34.16960144 180.77651978 C34.21718206 176.11456799 34.26952232 171.45269215 34.32522774 166.79083061 C34.34567995 165.00817177 34.36438818 163.22549207 34.38136101 161.44279671 C34.40534185 158.95467681 34.43540458 156.46670184 34.46696472 153.97866821 C34.47272018 153.23420441 34.47847565 152.4897406 34.48440552 151.72271729 C34.55823483 146.63544498 34.55823483 146.63544498 35.67228699 145.52139282 C38.17228699 145.39639282 38.17228699 145.39639282 40.67228699 145.52139282 C54.82227717 159.67138301 42.33316437 185.51315851 42.67228699 205.52139282 C113.29228699 205.52139282 183.91228699 205.52139282 256.67228699 205.52139282 C256.69291199 175.84201782 256.71353699 146.16264282 256.73478699 115.58389282 C256.74844299 101.50165039 256.74844299 101.50165039 256.76237488 87.13491821 C256.7657183 78.75502795 256.7657183 78.75502795 256.76773071 70.37513733 C256.76866631 66.62850864 256.7724294 62.88189398 256.77786255 59.13526917 C256.78468829 54.36563363 256.78678437 49.59601867 256.78535926 44.8263787 C256.78565755 43.07004045 256.78766008 41.31370152 256.79150212 39.55736744 C256.79642907 37.19659951 256.7952943 34.83591298 256.7925415 32.47514343 C256.79545417 31.77788367 256.79836683 31.08062391 256.80136776 30.36223507 C257.05988827 27.16400842 257.05988827 27.16400842 255.67228699 24.52139282 C252.92851806 24.42352063 250.20992721 24.3914594 247.46572876 24.40113831 C246.15975214 24.39985667 246.15975214 24.39985667 244.82739216 24.39854914 C241.88691677 24.39689166 238.94649743 24.40242007 236.00602722 24.40786743 C233.90738425 24.40814927 231.80874118 24.40799163 229.71009827 24.40742493 C223.99338909 24.40713683 218.27670069 24.41303554 212.55999637 24.41999888 C206.59287543 24.42623038 200.62575406 24.42683606 194.65863037 24.42802429 C183.35034069 24.43113821 172.04206063 24.43935242 160.7337752 24.44937378 C145.45902454 24.46261773 130.18427128 24.46803433 114.90951633 24.473876 C90.83043268 24.48329227 66.75136931 24.50321078 42.67228699 24.52139282 C42.34228699 56.20139282 42.01228699 87.88139282 41.67228699 120.52139282 C39.69228699 120.52139282 37.71228699 120.52139282 35.67228699 120.52139282 C33.99242473 117.1616683 34.49137172 113.36235885 34.46696472 109.66543579 C34.45706512 108.74830811 34.44716553 107.83118042 34.43696594 106.88626099 C34.40529983 103.84539397 34.38057332 100.80451131 34.35588074 97.76358032 C34.33531562 95.65893134 34.31431927 93.55428654 34.29290771 91.449646 C34.23764134 85.90287651 34.18825221 80.35606948 34.14006042 74.80923462 C34.08987871 69.15205533 34.03417529 63.49493076 33.97892761 57.83779907 C33.8712902 46.73237704 33.76985765 35.62690754 33.67228699 24.52139282 C27.85157076 24.49674644 22.03088464 24.47855852 16.21012878 24.46646118 C14.22835257 24.46142015 12.2465801 24.45458744 10.26481628 24.44595337 C7.4227659 24.43387767 4.58076451 24.42816237 1.73869324 24.42373657 C0.84702957 24.41857529 -0.04463409 24.413414 -0.96331787 24.40809631 C-4.96325492 24.00079267 -4.96325492 24.00079267 -8.32771301 25.52139282 Z " fill="#292728" transform="translate(125.32771301269531,49.478607177734375)"/>
<path d="M0 0 C1.10994928 -0.00765109 2.21989855 -0.01530219 3.36348265 -0.02318513 C7.06662883 -0.04375122 10.76914936 -0.03587912 14.47233582 -0.02792358 C17.13398274 -0.03662186 19.79558449 -0.04686125 22.45721436 -0.05889893 C28.92710612 -0.08434142 35.39683168 -0.08798675 41.86676506 -0.0832984 C47.12867072 -0.07972568 52.39052611 -0.08324494 57.65242577 -0.09174728 C58.40263994 -0.09293766 59.15285411 -0.09412804 59.92580205 -0.09535449 C61.45010347 -0.09777812 62.97440489 -0.10020638 64.4987063 -0.10263924 C78.78017732 -0.12437084 93.0615538 -0.1200747 107.34303012 -0.10786955 C120.39038738 -0.09753497 133.43744583 -0.12003529 146.48474399 -0.15806599 C159.90062233 -0.19686944 173.31635947 -0.21332652 186.73229426 -0.20581949 C194.25673711 -0.20200216 201.78092575 -0.20690436 209.30532265 -0.23524857 C215.71170747 -0.25913814 222.11768165 -0.26181775 228.52407245 -0.23766823 C231.78863402 -0.22593249 235.0522951 -0.22685906 238.3168335 -0.24767303 C265.18640413 -0.40659083 265.18640413 -0.40659083 274.65714741 8.35832787 C281.98127776 16.0790422 282.81693752 24.69392495 282.83291626 34.9511261 C282.84054799 36.18471374 282.84054799 36.18471374 282.8483339 37.44322234 C282.86396647 40.18501656 282.87255892 42.9267846 282.88102722 45.66860962 C282.89057295 47.64029605 282.90046442 49.61198084 282.91067505 51.58366394 C282.94197089 58.04595981 282.96231378 64.50826821 282.98088074 70.97061157 C282.98417806 72.07181595 282.98747538 73.17302033 282.99087262 74.30759454 C283.02164409 84.70076955 283.04833799 95.09394761 283.0652914 105.48715496 C283.08719694 118.75778911 283.12918636 132.02801872 283.19872898 145.29849118 C283.24602877 154.64311389 283.27023274 163.98762765 283.27748829 173.33236629 C283.28243433 178.90744425 283.2974169 184.48206539 283.33723259 190.05701256 C283.37421903 195.30456577 283.38246914 200.55140342 283.36922646 205.79906273 C283.3692802 207.71783823 283.3794926 209.63664646 283.40097809 211.55530167 C283.52519985 223.28119112 283.05486476 233.03172888 275.04878902 242.42649364 C268.25484363 248.84191393 260.25137188 251.12219299 251.1134491 251.06729126 C250.2050528 251.07762894 249.29665649 251.08796661 248.36073303 251.09861755 C245.39018073 251.12786297 242.42031518 251.12954085 239.44963074 251.13076782 C237.37739782 251.1457618 235.30517679 251.16249149 233.23297119 251.18087769 C227.80298795 251.22442651 222.3731659 251.24452269 216.94303894 251.25961304 C211.39240538 251.2792291 205.84194475 251.32119404 200.29142761 251.36123657 C189.41843424 251.43640365 178.54547983 251.48677685 167.67228699 251.52139282 C168.7182282 253.50806306 169.78859589 255.48188808 170.86930847 257.44985962 C171.46275558 258.55033127 172.0562027 259.65080292 172.66763306 260.78462219 C174.40783696 263.67925518 174.40783696 263.67925518 177.17230225 264.47789001 C179.75849073 264.68503051 182.15264753 264.58501403 184.73478699 264.33389282 C193.50976538 263.67885009 193.50976538 263.67885009 196.61125183 265.92666626 C198.93813679 268.48823556 200.43861985 270.63957756 201.32853699 273.99795532 C200.9609199 279.05269033 200.52777664 283.15986054 197.29728699 287.27139282 C193.94747379 289.84817221 190.11805904 289.65248914 186.03059387 289.67529297 C184.88102707 289.68389343 183.73146027 289.6924939 182.54705811 289.70135498 C180.6611924 289.7077449 180.6611924 289.7077449 178.73722839 289.71426392 C177.39663483 289.72216956 176.05604336 289.7304388 174.7154541 289.73904419 C170.31827307 289.76520303 165.92108278 289.78056212 161.52384949 289.79483032 C160.00839101 289.80019186 158.49293258 289.80556937 156.97747421 289.81096268 C150.67395413 289.83257922 144.37043655 289.85131636 138.06688881 289.86258507 C129.03999325 289.87883042 120.01352762 289.91203594 110.98679411 289.96898592 C104.63507985 290.00769119 98.28348057 290.02721821 91.93165147 290.03250563 C88.13965453 290.03615731 84.34811681 290.04815889 80.55624771 290.08060837 C76.98887193 290.11070132 73.42223297 290.11699717 69.85475731 290.10522461 C67.92595901 290.10489901 65.99720608 290.12935469 64.068573 290.15460205 C54.60972196 290.08649018 54.60972196 290.08649018 50.91017151 287.10992432 C47.36158282 283.00531861 47.39622674 280.34763435 47.44963074 275.06826782 C47.74756307 271.66034008 48.76699521 269.34404731 50.67228699 266.52139282 C53.94205466 264.34154771 54.58814563 264.32487779 58.31291199 264.52920532 C59.21912292 264.54467407 60.12533386 264.56014282 61.05900574 264.57608032 C62.95361317 264.62260547 64.84770056 264.70800149 66.73869324 264.83389282 C69.80489111 264.84256665 71.80675548 264.64587737 74.67228699 263.52139282 C76.81295442 260.76412026 76.81295442 260.76412026 78.49552917 257.43887329 C79.09854858 256.33703705 79.70156799 255.23520081 80.32286072 254.09997559 C80.76817139 253.24904327 81.21348206 252.39811096 81.67228699 251.52139282 C80.51685394 251.5199678 79.3614209 251.51854279 78.17097473 251.51707458 C67.25451875 251.5003676 56.33843378 251.45748084 45.42217445 251.38930225 C39.81066726 251.3550872 34.19943075 251.32993076 28.58781433 251.32583618 C23.16699867 251.32154155 17.74679306 251.29298172 12.32616806 251.24796104 C10.26348302 251.23502333 8.20072484 251.23066507 6.1380043 251.23523903 C-6.58569378 251.25687151 -16.30467612 251.1419582 -26.20271301 242.27139282 C-31.93413909 235.89334461 -33.93189145 229.0422003 -33.84237671 220.60990906 C-33.84932224 219.759896 -33.85626777 218.90988294 -33.86342376 218.03411192 C-33.88159252 215.21066939 -33.87145794 212.38807678 -33.86116028 209.56460571 C-33.86822387 207.530262 -33.87697073 205.49592354 -33.88726807 203.46159363 C-33.90972211 197.95327982 -33.90683159 192.4452539 -33.8979466 186.93691182 C-33.89282752 182.33206983 -33.90013674 177.7272815 -33.90741867 173.12244505 C-33.924405 162.25643764 -33.92086448 151.39057071 -33.90412903 140.52456665 C-33.88720685 129.32785182 -33.90304667 118.13152683 -33.93535191 106.93485457 C-33.96207124 97.30824024 -33.96931751 87.6817471 -33.96083683 78.05509943 C-33.95591476 72.31143091 -33.95808454 66.56799693 -33.97862434 60.82435799 C-33.99701822 55.42248533 -33.99097706 50.02117228 -33.96642494 44.61932945 C-33.96142896 42.64169212 -33.96487516 40.66401187 -33.97757339 38.686409 C-34.10122018 17.7684055 -34.10122018 17.7684055 -26.39658451 9.43188572 C-18.74133572 1.91712046 -10.46011794 -0.07721603 0 0 Z M-22.39021301 17.14639282 C-25.24917882 22.12652682 -25.47620765 25.97616569 -25.47488403 31.57295227 C-25.47856072 32.4029157 -25.48223741 33.23287913 -25.48602551 34.08799297 C-25.49707052 36.87919431 -25.50090759 39.67035843 -25.50471497 42.46157837 C-25.51097902 44.4588686 -25.51762577 46.45615766 -25.52462769 48.45344543 C-25.54204314 53.88751188 -25.55259104 59.32156952 -25.56083322 64.75565696 C-25.56598245 68.15032145 -25.57205823 71.54498321 -25.57834435 74.93964577 C-25.59739835 85.55963628 -25.61162879 96.17961982 -25.61995631 106.79962415 C-25.62972909 119.06055547 -25.65604892 131.32130629 -25.69645721 143.582174 C-25.72661377 153.05744191 -25.74142478 162.53265805 -25.74473733 172.00797302 C-25.7470884 177.66782339 -25.75605645 183.32748097 -25.7811985 188.98727989 C-25.80447593 194.31345298 -25.80871365 199.63930628 -25.79843712 204.96551704 C-25.79794157 206.91820209 -25.80426773 208.87090286 -25.81799316 210.82353973 C-25.8357134 213.49438024 -25.82860543 216.16407326 -25.81546021 218.83491516 C-25.82642945 219.60331952 -25.8373987 220.37172388 -25.84870034 221.16341323 C-25.77274166 227.57843051 -23.8547457 232.96525803 -19.29255676 237.57998657 C-18.62353333 238.03502563 -17.95450989 238.4900647 -17.26521301 238.95889282 C-16.59361145 239.43197876 -15.92200989 239.9050647 -15.23005676 240.39248657 C-12.03181985 242.29041361 -9.40541767 242.64836424 -5.76981258 242.66120052 C-4.35932814 242.66973739 -4.35932814 242.66973739 -2.92034906 242.67844671 C-1.88535274 242.67962659 -0.85035643 242.68080646 0.21600342 242.68202209 C1.31407017 242.68710991 2.41213693 242.69219773 3.54347843 242.69743973 C7.24209366 242.71320093 10.94068931 242.72169899 14.639328 242.73013306 C16.61015781 242.73724005 18.58098763 242.74435328 20.55181552 242.75197338 C29.17517655 242.78529762 37.7985495 242.80682004 46.42195383 242.82517323 C48.66791188 242.82996889 50.91386945 242.83495214 53.15982699 242.83997846 C67.1103567 242.87095281 81.06089058 242.89763518 95.01144505 242.91439724 C98.24287486 242.91834668 101.47430459 242.92234967 104.70573425 242.92642212 C105.91045382 242.92793466 105.91045382 242.92793466 107.13951116 242.92947776 C120.14331054 242.94647628 133.14691933 242.98757602 146.15062571 243.03844511 C159.50525494 243.09025655 172.85978626 243.11934422 186.21451515 243.12659413 C193.71107498 243.13125221 201.20732284 243.14595913 208.70378304 243.18633842 C215.08983456 243.22069493 221.47551781 243.23455529 227.86165643 243.22191428 C231.11786042 243.2161 234.37312549 243.22315794 237.62924576 243.25008392 C241.16670006 243.27776878 244.70221411 243.26825246 248.23968506 243.24964905 C249.25906632 243.26644398 250.27844759 243.28323891 251.3287192 243.30054277 C258.67872714 243.20421451 263.93503271 241.17296817 269.67228699 236.52139282 C276.64282595 228.13006653 275.37825364 217.1695166 275.31925964 206.87832642 C275.32604259 204.88984885 275.33494951 202.90137757 275.34580994 200.91291809 C275.36852618 195.53488755 275.35979936 190.15733874 275.34391451 184.77930021 C275.33121928 179.14161133 275.34300535 173.50396255 275.35084534 167.86627197 C275.35992984 158.40260441 275.34798383 148.93913225 275.32414246 139.47549438 C275.29691789 128.54284124 275.30576004 117.61065416 275.33327448 106.67801225 C275.35597988 97.27899676 275.35915907 87.88012138 275.34608114 78.48108733 C275.33829657 72.87276484 275.33721814 67.26466131 275.35376358 61.656353 C275.36823032 56.38495162 275.35814594 51.11415021 275.3292923 45.84281349 C275.322694 43.9111067 275.32455761 41.97934921 275.33560562 40.04766273 C275.34932218 37.40536639 275.33207286 34.7649783 275.3072052 32.12280273 C275.31835881 31.36306416 275.32951242 30.60332558 275.34100401 29.82056463 C275.22332011 23.35011415 272.66721172 18.62640947 268.19429839 13.98907411 C261.79306987 8.34206663 256.1170547 8.22796015 247.96398926 8.24723816 C246.87238076 8.24200148 245.78077226 8.2367648 244.65608472 8.23136944 C240.99128259 8.21634488 237.32661978 8.21566373 233.66178894 8.21499634 C231.03691369 8.20737645 228.41204068 8.19894925 225.78717041 8.18977356 C218.65065961 8.16693747 211.51417858 8.15900431 204.37763619 8.15394711 C199.91925569 8.15068817 195.4608838 8.14416446 191.00250816 8.13694572 C178.65206461 8.11738083 166.30162906 8.10097623 153.95116901 8.09806919 C153.16104042 8.09788162 152.37091183 8.09769405 151.55683995 8.0975008 C149.95513578 8.09713455 148.35343161 8.09677085 146.75172744 8.09640969 C145.95666688 8.09622687 145.16160631 8.09604406 144.342453 8.09585571 C143.54641886 8.09567516 142.75038471 8.09549461 141.93022832 8.09530859 C129.03650653 8.09176823 116.14295189 8.06475403 103.24928806 8.02735782 C90.00306717 7.98924741 76.75692916 7.96991151 63.51065224 7.96960968 C56.0767741 7.96902569 48.6430953 7.96057158 41.20926857 7.93161201 C34.87817687 7.90706134 28.5473572 7.89983983 22.21623073 7.91485954 C18.98847899 7.92201394 15.76137396 7.91849719 12.53366089 7.89844894 C9.02714187 7.87799991 5.52200482 7.88853556 2.01550293 7.90666199 C0.50015023 7.88686204 0.50015023 7.88686204 -1.04581565 7.86666209 C-9.37813381 7.96475716 -17.24204719 10.18521965 -22.39021301 17.14639282 Z " fill="#241F20" transform="translate(125.32771301269531,49.478607177734375)"/>
<path d="M0 0 C13.31094215 9.00012856 24.35149212 22.54039567 28.11621094 38.47167969 C31.06611442 55.98344772 29.09951883 74.43032341 19.21875 89.453125 C10.67101996 100.8760006 0.91532758 109.64402148 -12.5 114.75 C-13.27730469 115.05808594 -14.05460937 115.36617188 -14.85546875 115.68359375 C-31.95092601 121.66843557 -49.62892379 118.75330047 -65.640625 111.28515625 C-82.09913435 102.47425269 -92.29721385 88.06562214 -97.80859375 70.46875 C-102.3353983 52.66843379 -98.8532687 35.31028482 -89.72265625 19.65283203 C-70.58297689 -10.13444052 -29.75040158 -18.7636552 0 0 Z " fill="#F7F4BA" transform="translate(284.5,122.25)"/>
<path d="M0 0 C1.63952945 -0.00679667 1.63952945 -0.00679667 3.3121807 -0.01373065 C6.98165666 -0.02641006 10.65098488 -0.02475197 14.32048035 -0.02310181 C16.94860017 -0.02908484 19.57671824 -0.03588986 22.20483398 -0.04345703 C28.60705295 -0.06006352 35.00923509 -0.06556642 41.41147379 -0.06668179 C46.61628782 -0.06763245 51.8210897 -0.07174368 57.02589989 -0.07808304 C71.78629762 -0.09569471 86.54666627 -0.10492206 101.30707458 -0.10342209 C102.1026606 -0.10334218 102.89824661 -0.10326227 103.71794128 -0.10317993 C104.51450005 -0.10309817 105.31105882 -0.10301641 106.13175573 -0.10293217 C119.03973682 -0.10211935 131.9476012 -0.12125614 144.85554854 -0.14945666 C158.11305927 -0.17819206 171.37051309 -0.19199659 184.62805575 -0.19026911 C192.06966149 -0.18960542 199.51114488 -0.19508838 206.95272255 -0.21662521 C213.28897035 -0.23484571 219.62504036 -0.23917734 225.96130303 -0.22560637 C229.19277254 -0.21908085 232.42383058 -0.22112207 235.65528107 -0.23631287 C239.16233798 -0.25173132 242.6684997 -0.2424784 246.17553711 -0.22705078 C247.19159792 -0.23733791 248.20765874 -0.24762503 249.25450927 -0.25822389 C256.42075448 -0.18857834 261.8505547 1.25000019 267.30168152 6.04867554 C267.74769714 6.61586304 268.19371277 7.18305054 268.65324402 7.76742554 C269.34547058 8.61820679 269.34547058 8.61820679 270.05168152 9.48617554 C273.22328148 14.09206593 273.569733 17.85115058 273.55239868 23.38781738 C273.55763536 24.21314055 273.56287204 25.03846372 273.56826741 25.88879669 C273.58328674 28.65844706 273.58397299 31.42791299 273.5846405 34.19760132 C273.59226088 36.18194389 273.60068816 38.16628351 273.60986328 40.15061951 C273.63183172 45.5455158 273.64061076 50.94035541 273.64568973 56.33529139 C273.64933161 59.70703333 273.6555709 63.0787604 273.66269112 66.45049667 C273.6871972 78.21727908 273.70023927 89.98401736 273.70378113 101.75082397 C273.70741363 112.71167695 273.73728569 123.67224942 273.77918571 134.63301671 C273.81390923 144.04719822 273.82932996 153.46128692 273.83002716 162.87553203 C273.8308195 168.49634314 273.83953795 174.11686883 273.86802483 179.73761368 C273.89423936 185.02858082 273.89639151 190.31902667 273.88036919 195.61002922 C273.8785572 197.54736278 273.88522272 199.48472654 273.9011879 201.42199516 C274.05516104 221.32634206 274.05516104 221.32634206 268.27824402 228.26742554 C261.47279808 233.77758668 255.46165454 235.14045702 246.87928772 235.01586914 C245.77382886 235.02381795 244.66837 235.03176677 243.52941239 235.03995645 C239.84733767 235.05911384 236.1668171 235.03562293 232.48478699 235.01205444 C229.83618569 235.01691336 227.18768522 235.0241229 224.53910828 235.03417969 C218.10600277 235.05309807 211.67334786 235.04000805 205.24027596 235.0156538 C197.74250992 234.98833208 190.24484966 234.99169659 182.74704649 234.99592046 C169.36689121 235.00229159 155.98694931 234.97901322 142.6068573 234.93978882 C129.63413498 234.90176885 116.6616626 234.88761873 103.68888855 234.89877319 C89.54693494 234.91089707 75.40509104 234.91052068 61.26314652 234.88780153 C59.75443721 234.88538705 58.2457279 234.88297508 56.73701859 234.88056564 C55.99478439 234.87935857 55.25255019 234.87815149 54.48782405 234.87690783 C49.26564705 234.86916016 44.04351099 234.86993257 38.82133102 234.87373734 C32.45588718 234.87798764 26.09066181 234.86748471 19.72527944 234.83851023 C16.47962629 234.8240536 13.23435432 234.81799082 9.98866653 234.82499695 C6.46650403 234.83144635 2.94529727 234.81326424 -0.57676697 234.78881836 C-2.10741513 234.80015633 -2.10741513 234.80015633 -3.66898549 234.81172335 C-10.85247784 234.72354808 -16.55646654 233.39667753 -21.78034973 228.23226929 C-22.23538879 227.56324585 -22.69042786 226.89422241 -23.15925598 226.20492554 C-23.86888489 225.19752319 -23.86888489 225.19752319 -24.59284973 224.16976929 C-27.08035584 219.97802023 -26.87004148 215.92830683 -26.868927 211.21586609 C-26.87260369 210.38590266 -26.87628038 209.55593923 -26.88006848 208.70082539 C-26.89111349 205.90962405 -26.89495055 203.11845993 -26.89875793 200.32723999 C-26.90502199 198.32994976 -26.91166873 196.3326607 -26.91867065 194.33537292 C-26.93608611 188.90130648 -26.94663401 183.46724884 -26.95487618 178.0331614 C-26.96002541 174.63849691 -26.9661012 171.24383515 -26.97238731 167.84917259 C-26.99144132 157.22918208 -27.00567175 146.60919853 -27.01399928 135.98919421 C-27.02377206 123.72826289 -27.05009189 111.46751207 -27.09050018 99.20664436 C-27.12065674 89.73137645 -27.13546774 80.25616031 -27.1387803 70.78084534 C-27.14113137 65.12099496 -27.15009942 59.46133739 -27.17524147 53.80153847 C-27.1985189 48.47536538 -27.20275662 43.14951208 -27.19248009 37.82330132 C-27.19198453 35.87061627 -27.1983107 33.9179155 -27.21203613 31.96527863 C-27.22975637 29.29443811 -27.2226484 26.62474509 -27.20950317 23.9539032 C-27.22047242 23.18549884 -27.23144167 22.41709448 -27.24274331 21.62540513 C-27.16916052 15.41104161 -25.36243973 9.99672283 -20.97566223 5.46273804 C-20.41749817 5.10953491 -19.85933411 4.75633179 -19.28425598 4.39242554 C-18.45087708 3.83941772 -18.45087708 3.83941772 -17.60066223 3.27523804 C-16.67060364 2.77637085 -16.67060364 2.77637085 -15.72175598 2.26742554 C-15.07913976 1.92215506 -14.43652353 1.57688457 -13.77443409 1.22115135 C-9.2009262 -0.20771615 -4.76474926 -0.0144291 0 0 Z M-16.71827495 12.43778175 C-18.53258073 15.74579973 -18.54333231 19.06754924 -18.47692871 22.73117065 C-18.48558309 23.56919204 -18.49423747 24.40721343 -18.5031541 25.27062941 C-18.52470213 28.071666 -18.50347082 30.87070779 -18.48225403 33.67172241 C-18.48874877 35.68256071 -18.49781089 37.69339211 -18.50924683 39.70420837 C-18.53232538 45.16093415 -18.51761002 50.61696039 -18.49477744 56.07366371 C-18.47586276 61.78437929 -18.48701958 67.49504786 -18.49368286 73.20578003 C-18.50002351 82.79594026 -18.48175306 92.3858202 -18.4490509 101.97592163 C-18.41155653 113.06304577 -18.41333517 124.14963893 -18.43609208 135.23679113 C-18.4570411 145.90275482 -18.44976707 156.56852228 -18.42977333 167.23448181 C-18.4217871 171.77346908 -18.42377917 176.31229037 -18.43379784 180.85127258 C-18.44434855 186.19650193 -18.43022287 191.54111251 -18.39705467 196.88624382 C-18.38884644 198.84780635 -18.38913265 200.80942556 -18.39853287 202.77098274 C-18.40995799 205.4492413 -18.39058482 208.12557521 -18.36340332 210.80368042 C-18.37387481 211.57975505 -18.3843463 212.35582969 -18.3951351 213.15542173 C-18.28517495 218.97206962 -16.72363996 221.34508873 -12.72175598 225.26742554 C-10.36450416 226.44605145 -8.96404974 226.39478084 -6.3354063 226.3988533 C-5.40792448 226.40269445 -4.48044265 226.40653559 -3.52485532 226.41049314 C-1.98622137 226.40919341 -1.98622137 226.40919341 -0.41650391 226.40786743 C1.21010502 226.41232412 1.21010502 226.41232412 2.86957473 226.41687083 C6.52769677 226.42558903 10.18578621 226.42706871 13.84391785 226.42855835 C16.45675731 226.4331843 19.06959609 226.43820866 21.68243408 226.44360352 C28.7981252 226.4571981 35.9138107 226.46321335 43.02951264 226.46761417 C47.47091622 226.4703748 51.91231761 226.47461183 56.35371971 226.47911835 C68.64572036 226.49131267 80.93771927 226.50161154 93.22972584 226.50499344 C94.01678238 226.505213 94.80383892 226.50543257 95.61474566 226.50565879 C96.40370833 226.50587707 97.19267099 226.50609535 98.00554162 226.50632024 C99.6043363 226.50676371 101.20313098 226.50721027 102.80192566 226.50765991 C103.59498663 226.50788134 104.38804761 226.50810277 105.20514073 226.50833091 C118.05711655 226.51227937 130.90903567 226.52973409 143.76098958 226.55301943 C156.94945404 226.57672199 170.13789004 226.5891948 183.32637614 226.59036136 C190.73381841 226.59127876 198.14118683 226.59704731 205.54860878 226.61518097 C212.51461794 226.63217365 219.48048462 226.63384277 226.44650841 226.62504196 C229.00676727 226.62426877 231.56703352 226.6286512 234.12727356 226.63850021 C237.61569865 226.65113539 241.10362003 226.64538854 244.59204102 226.63491821 C246.12063672 226.64700282 246.12063672 226.64700282 247.68011314 226.65933156 C253.91879371 226.61537592 257.40793161 225.95804103 262.06609344 221.59150505 C263.84994393 218.17129435 263.69845043 214.84918977 263.6726532 211.08215332 C263.68178985 209.83380984 263.68178985 209.83380984 263.69111109 208.5602473 C263.70778025 205.7673522 263.70295971 202.97491105 263.69816589 200.18197632 C263.70550398 198.18128993 263.71408945 196.18060777 263.72383118 194.17993164 C263.74608405 188.74188518 263.74897594 183.30399007 263.74708366 177.86590433 C263.74696413 173.32804605 263.75552138 168.79022004 263.76386118 164.25237072 C263.78310911 153.54724349 263.78597411 142.84219424 263.77922058 132.13705444 C263.77257947 121.08976842 263.79544393 110.04281626 263.83253431 98.99559796 C263.86321309 89.51437837 263.87459328 80.03326627 263.8706975 70.55199802 C263.86862801 64.88773416 263.8741402 59.22373001 263.89859009 53.55951309 C263.92082422 48.23242591 263.91900691 42.90588206 263.89866257 37.57879257 C263.89524656 35.62366058 263.90036696 33.66849226 263.91464615 31.71340942 C263.93279806 29.04385881 263.9201205 26.37615932 263.89970398 23.70666504 C263.91222183 22.93311711 263.92473968 22.15956919 263.93763685 21.36258042 C263.84234415 15.54999551 262.27593947 13.18611304 258.27824402 9.26742554 C255.91627459 8.08644082 254.49815678 8.13696073 251.86345291 8.12761784 C250.92962099 8.12192659 249.99578907 8.11623535 249.03365922 8.11037165 C248.00080348 8.10919177 246.96794774 8.1080119 245.90379333 8.10679626 C244.2659921 8.09916454 244.2659921 8.09916454 242.59510398 8.09137863 C238.91168584 8.07559778 235.22828738 8.06711429 231.54484558 8.0586853 C228.91392388 8.04915149 226.28300346 8.03926054 223.65208435 8.02903748 C215.73885549 7.99974107 207.82561509 7.98056385 199.91235125 7.96364513 C197.67789116 7.95885114 195.44343156 7.9538677 193.20897198 7.9488399 C179.3380815 7.9178704 165.46718688 7.89118046 151.59627151 7.87442112 C148.38251488 7.87047151 145.16875831 7.86646853 141.95500183 7.86239624 C140.75683199 7.8608837 140.75683199 7.8608837 139.5344567 7.8593406 C126.59255646 7.84233099 113.65084734 7.80121944 100.70904043 7.75037325 C87.42678295 7.69861807 74.14462379 7.66948167 60.8622663 7.66222423 C53.40270701 7.65755935 45.94346071 7.6427811 38.48400116 7.60247993 C32.13148064 7.56820121 25.77932956 7.55423161 19.42672184 7.56690408 C16.18519503 7.57273638 12.94461466 7.56556506 9.70317078 7.53873444 C6.18833826 7.51119221 2.67547569 7.52050175 -0.83937073 7.53916931 C-2.37527001 7.51397692 -2.37527001 7.51397692 -3.94219756 7.48827559 C-9.44189701 7.56144659 -13.0970208 8.04568896 -16.71827495 12.43778175 Z " fill="#EB8C99" transform="translate(126.72175598144531,57.732574462890625)"/>
<path d="M0 0 C1.72974441 0.00015918 3.45949355 0.0058569 5.18920898 0.01586914 C6.09783188 0.01728409 7.00645477 0.01869904 7.94261169 0.02015686 C10.85687494 0.02577346 13.77106254 0.03832874 16.68530273 0.05102539 C18.65600475 0.05603825 20.62670797 0.06060153 22.59741211 0.06469727 C27.43923832 0.07574828 32.28100768 0.09302401 37.12280273 0.11352539 C37.1331102 1.28672333 37.14341766 2.45992126 37.15403748 3.66867065 C37.25163856 14.70520975 37.35435983 25.74169079 37.46214199 36.7781353 C37.51739282 42.45257469 37.57081627 48.12701922 37.62011719 53.80151367 C37.66772887 59.27394333 37.7200705 64.74630888 37.77574348 70.21866226 C37.79618154 72.31030819 37.81489218 74.40197171 37.83187675 76.49364853 C37.85588866 79.41502007 37.88594759 82.33626971 37.91748047 85.25756836 C37.92611366 86.56523666 37.92611366 86.56523666 37.93492126 87.89932251 C37.86955385 92.14148333 37.86955385 92.14148333 39.12280273 96.11352539 C40.11280273 96.44352539 41.10280273 96.77352539 42.12280273 97.11352539 C42.12280273 104.70352539 42.12280273 112.29352539 42.12280273 120.11352539 C40.14280273 121.10352539 40.14280273 121.10352539 38.12280273 122.11352539 C37.79280273 148.51352539 37.46280273 174.91352539 37.12280273 202.11352539 C30.37842773 202.13415039 23.63405273 202.15477539 16.68530273 202.17602539 C14.55391846 202.18512939 12.42253418 202.1942334 10.2265625 202.20361328 C8.5474453 202.20653239 6.8683274 202.20908096 5.18920898 202.21118164 C4.30906128 202.21629761 3.42891357 202.22141357 2.52209473 202.22668457 C0.38866394 202.22699435 -1.7446804 202.17596606 -3.87719727 202.11352539 C-5.62476241 200.36596025 -5.00224057 198.08336642 -5.01094067 195.75448322 C-5.00759459 194.59259118 -5.00759459 194.59259118 -5.00418091 193.40722656 C-5.0057409 192.59036723 -5.00730089 191.7735079 -5.00890815 190.93189526 C-5.01292158 188.17341028 -5.00972719 185.4149796 -5.0065918 182.65649414 C-5.00794569 180.68755053 -5.00972555 178.71860718 -5.01190186 176.74966431 C-5.01647766 171.38618479 -5.01468603 166.02272441 -5.01152277 160.65924454 C-5.00899992 155.059613 -5.01133649 149.45998316 -5.01290894 143.86035156 C-5.01473085 134.45483098 -5.01232374 125.04931823 -5.00756836 115.64379883 C-5.0021257 104.75281362 -5.00388834 93.86184714 -5.00939476 82.97086239 C-5.01392526 73.63841815 -5.01457675 64.30597957 -5.0119561 54.97353458 C-5.01039297 49.39164485 -5.01020052 43.80976393 -5.01349258 38.22787476 C-5.01637038 32.98145034 -5.01439729 27.73505017 -5.00859833 22.48862839 C-5.00727024 20.55720434 -5.00766567 18.62577827 -5.00986099 16.69435501 C-5.01257059 14.06948337 -5.00919373 11.44469075 -5.00418091 8.81982422 C-5.00641163 8.04522952 -5.00864235 7.27063482 -5.01094067 6.47256756 C-4.98730636 0.14602969 -4.98730636 0.14602969 0 0 Z " fill="#90D0E5" transform="translate(121.877197265625,73.886474609375)"/>
<path d="M0 0 C4.34380971 3.3199209 8.1910571 7.08872729 12 11 C12.67804688 11.680625 13.35609375 12.36125 14.0546875 13.0625 C22.37621294 21.9387938 26.99839159 32.33498152 30 44 C30.17732666 44.62036133 30.35465332 45.24072266 30.53735352 45.87988281 C31.87011241 50.72692584 32.35253409 55.2300732 32.3125 60.25 C32.30512817 61.36133301 32.30512817 61.36133301 32.29760742 62.49511719 C32.16055743 68.98636714 31.0718167 74.83447319 29 81 C28.64808594 82.06863281 28.29617188 83.13726562 27.93359375 84.23828125 C21.40794947 102.56608087 8.59107425 117.46731801 -9 126 C-13.89773148 128.02656005 -18.90379503 129.55976816 -24 131 C-25.16402344 131.36931641 -25.16402344 131.36931641 -26.3515625 131.74609375 C-43.58953796 136.57139576 -61.87432746 131.62330771 -77.13671875 123.32421875 C-95.33912111 112.77308799 -106.54410767 95.63093657 -111.9375 75.5625 C-116.04850991 54.93084778 -110.95817435 36.43361157 -100.05078125 18.859375 C-88.51462107 2.10503283 -71.88506161 -6.7787346 -52.578125 -11.60546875 C-34.31985201 -14.3995378 -15.50848516 -9.92319639 0 0 Z M-91.6875 21.1875 C-102.02412101 35.23846236 -106.363842 50.62502662 -105 68 C-102.24386176 85.47690761 -93.55920803 100.6790787 -80 112 C-65.29338013 122.42069065 -48.5737473 126.91456219 -30.6875 124.3125 C-11.39084667 120.3264608 3.90063805 110.4756154 15 94 C23.5078786 78.73456157 26.43745635 59.28643463 21.93359375 42.2421875 C16.45722588 25.38395084 4.57968834 11.00382064 -11.16503906 2.87695312 C-39.75331591 -10.78577844 -71.64223107 -2.88472028 -91.6875 21.1875 Z " fill="#282526" transform="translate(290,116)"/>
<path d="M0 0 C70.62 0 141.24 0 214 0 C214 3.63 214 7.26 214 11 C212.19054269 12.80945731 209.70470409 12.122635 207.29604524 12.12908131 C206.4701861 12.12616847 205.64432695 12.12325563 204.79344177 12.12025452 C203.92279069 12.12110894 203.05213962 12.12196337 202.15510517 12.12284368 C199.21462978 12.12450116 196.27421044 12.11897276 193.33374023 12.11352539 C191.23509726 12.11324355 189.13645419 12.11340119 187.03781128 12.1139679 C181.3211021 12.114256 175.60441371 12.10835728 169.88770938 12.10139394 C163.92058844 12.09516244 157.95346708 12.09455676 151.98634338 12.09336853 C140.67805371 12.09025461 129.36977364 12.0820404 118.06148821 12.07201904 C105.19109449 12.06085979 92.32070031 12.05534793 79.45030296 12.05032361 C52.9668633 12.03985784 26.48343219 12.02225723 0 12 C0 8.04 0 4.08 0 0 Z " fill="#C3E4F1" transform="translate(168,264)"/>
<path d="M0 0 C1.051875 0.01353516 2.10375 0.02707031 3.1875 0.04101562 C5.75055954 0.07596644 8.31248913 0.12502318 10.875 0.1875 C10.875 0.5175 10.875 0.8475 10.875 1.1875 C10.2665625 1.2390625 9.658125 1.290625 9.03125 1.34375 C-6.41118342 3.34218256 -23.23310739 13.23771957 -33.125 25.1875 C-43.4839691 39.3052311 -49.44252131 55.61851071 -46.8203125 73.234375 C-43.41264552 92.28949237 -33.97879924 109.22921133 -17.8828125 120.53125 C-14.99030194 122.46412764 -12.08027225 124.35233094 -9.125 126.1875 C-15.0130842 128.49655263 -21.64820849 124.54495253 -27.125 122.1875 C-43.15597176 114.72617117 -53.95617254 102.08696445 -60.46484375 85.84375 C-66.41760929 68.72690104 -65.42413303 51.45877835 -57.625 35.125 C-49.28921151 18.63266611 -34.89334014 7.42617836 -17.5 1.5234375 C-11.64861578 -0.172003 -6.04979225 -0.15009027 0 0 Z " fill="#C2E2EE" transform="translate(249.125,112.8125)"/>
<path d="M0 0 C1.70376045 -0.00422974 1.70376045 -0.00422974 3.44194031 -0.00854492 C4.69912369 -0.00652069 5.95630707 -0.00449646 7.25158691 -0.00241089 C8.56685867 -0.00416321 9.88213043 -0.00591553 11.23725891 -0.00772095 C14.85492936 -0.01229501 18.47257142 -0.01050584 22.09024239 -0.00734186 C25.8681051 -0.00481812 29.64596532 -0.00715584 33.42382812 -0.00872803 C39.76925088 -0.01054968 46.11466201 -0.00814352 52.46008301 -0.00338745 C59.80651897 0.00205516 67.15292718 0.0002925 74.49936247 -0.00521386 C80.79573921 -0.00974511 87.09210758 -0.01039548 93.38848543 -0.00777519 C97.15390764 -0.00621248 100.91931678 -0.00601848 104.68473816 -0.00931168 C108.88021501 -0.01272438 113.07564367 -0.00800046 117.27111816 -0.00241089 C119.15689323 -0.00544724 119.15689323 -0.00544724 121.08076477 -0.00854492 C122.21660507 -0.0057251 123.35244537 -0.00290527 124.52270508 0 C125.51602089 0.00037703 126.5093367 0.00075405 127.53275299 0.0011425 C129.76135254 0.12698364 129.76135254 0.12698364 130.76135254 1.12698364 C130.88635254 4.62698364 130.88635254 4.62698364 130.76135254 8.12698364 C129.05537436 9.83296182 126.85502166 9.25308202 124.52270508 9.25396729 C123.38686478 9.25678711 122.25102448 9.25960693 121.08076477 9.26251221 C119.82358139 9.26048798 118.56639801 9.25846375 117.27111816 9.25637817 C115.95584641 9.25813049 114.64057465 9.25988281 113.28544617 9.26168823 C109.66777572 9.2662623 106.05013366 9.26447312 102.43246269 9.26130915 C98.65459997 9.2587854 94.87673976 9.26112312 91.09887695 9.26269531 C84.7534542 9.26451697 78.40804306 9.26211081 72.06262207 9.25735474 C64.71618611 9.25191212 57.3697779 9.25367478 50.02334261 9.25918114 C43.72696586 9.26371239 37.43059749 9.26436276 31.13421965 9.26174247 C27.36879744 9.26017976 23.6033883 9.25998577 19.83796692 9.26327896 C15.64249007 9.26669167 11.44706141 9.26196775 7.25158691 9.25637817 C5.36581184 9.25941452 5.36581184 9.25941452 3.44194031 9.26251221 C2.30610001 9.25969238 1.1702597 9.25687256 0 9.25396729 C-0.99331581 9.25359026 -1.98663162 9.25321323 -3.01004791 9.25282478 C-5.23864746 9.12698364 -5.23864746 9.12698364 -6.23864746 8.12698364 C-6.36364746 4.62698364 -6.36364746 4.62698364 -6.23864746 1.12698364 C-4.53266928 -0.57899454 -2.33231658 0.00088526 0 0 Z " fill="#EE8E9A" transform="translate(187.2386474609375,321.8730163574219)"/>
<path d="M0 0 C5.6925 -0.12375 5.6925 -0.12375 11.5 -0.25 C12.68013672 -0.28641602 13.86027344 -0.32283203 15.07617188 -0.36035156 C21.56679873 -0.42828182 26.65348233 0.09757944 32 4 C34.93166515 7.22483167 36.23231887 9.69940347 36.4375 14 C36.1845439 18.72485863 34.45932314 22.24881223 31.4375 25.875 C30 27 30 27 28 27 C28.49371094 27.75925781 28.98742187 28.51851563 29.49609375 29.30078125 C30.45708984 30.79158203 30.45708984 30.79158203 31.4375 32.3125 C32.39462891 33.79169922 32.39462891 33.79169922 33.37109375 35.30078125 C35 38 35 38 36 41 C32.49286449 41.63509496 29.47967706 41.86480209 26 41 C23.89954215 38.58533431 22.42796348 36.04632443 20.8046875 33.29296875 C19.19025006 30.82799055 19.19025006 30.82799055 16.5703125 30.11328125 C13.80778608 29.79801229 13.80778608 29.79801229 10 30 C10 33.63 10 37.26 10 41 C6.7 41 3.4 41 0 41 C0 27.47 0 13.94 0 0 Z " fill="#2B2324" transform="translate(195,363)"/>
<path d="M0 0 C8.48392736 -0.27865358 16.96593037 -0.49154088 25.45330906 -0.62174606 C29.3950823 -0.6842584 33.33371606 -0.76893607 37.27368164 -0.90527344 C41.08004674 -1.03615581 44.88340481 -1.10749814 48.69184685 -1.13852692 C50.14069947 -1.16061889 51.58939574 -1.2037724 53.03695869 -1.26876068 C57.55920171 -1.46361822 61.65192743 -1.45242399 66 0 C69.48346177 3.74893218 73 8.67838759 73 14 C46.6 14 20.2 14 -7 14 C-5.58843021 10.47107553 -4.22615467 7.45137797 -2.375 4.1875 C-1.92898437 3.39730469 -1.48296875 2.60710937 -1.0234375 1.79296875 C-0.68570313 1.20128906 -0.34796875 0.60960937 0 0 Z " fill="#EC8D99" transform="translate(217,300)"/>
<path d="M0 0 C10.56 0 21.12 0 32 0 C32 2.64 32 5.28 32 8 C24.74 8 17.48 8 10 8 C10 10.64 10 13.28 10 16 C16.27 16 22.54 16 29 16 C29 18.64 29 21.28 29 24 C22.73 24 16.46 24 10 24 C10 26.97 10 29.94 10 33 C17.26 33 24.52 33 32 33 C32 35.64 32 38.28 32 41 C21.44 41 10.88 41 0 41 C0 27.47 0 13.94 0 0 Z " fill="#2F2527" transform="translate(152,363)"/>
<path d="M0 0 C10.23 0 20.46 0 31 0 C31 2.64 31 5.28 31 8 C24.07 8 17.14 8 10 8 C10 10.64 10 13.28 10 16 C16.27 16 22.54 16 29 16 C29 18.64 29 21.28 29 24 C22.73 24 16.46 24 10 24 C10 26.97 10 29.94 10 33 C17.26 33 24.52 33 32 33 C32 35.64 32 38.28 32 41 C21.44 41 10.88 41 0 41 C0 27.47 0 13.94 0 0 Z " fill="#2E2724" transform="translate(359,363)"/>
<path d="M0 0 C3 0.125 3 0.125 4 1.125 C4.10603305 4.28039985 4.14677393 7.41403373 4.14526367 10.57006836 C4.14862228 11.561866 4.1519809 12.55366364 4.15544128 13.57551575 C4.16498286 16.87197096 4.16689598 20.16837556 4.16796875 23.46484375 C4.17117905 25.7454887 4.17454294 28.02613345 4.17805481 30.30677795 C4.18405408 35.09441607 4.18589389 39.88203612 4.18530273 44.66967773 C4.18520105 50.81820063 4.19885585 56.96660819 4.21607494 63.11510372 C4.22716854 67.82728106 4.22922276 72.53943028 4.22869301 77.25161934 C4.22987702 79.51912394 4.23432218 81.78662919 4.24202538 84.05412102 C4.25177235 87.21967629 4.24896826 90.38497815 4.24291992 93.55053711 C4.24853943 94.49555084 4.25415894 95.44056458 4.25994873 96.41421509 C4.253657 97.70353691 4.253657 97.70353691 4.24723816 99.01890564 C4.24778293 99.76794631 4.24832769 100.51698698 4.24888897 101.28872585 C4 103.125 4 103.125 2 105.125 C-0.5625 104.875 -0.5625 104.875 -3 104.125 C-4.14066794 101.84366413 -4.12569548 100.59088247 -4.12698364 98.05686951 C-4.12980347 97.20573578 -4.13262329 96.35460205 -4.13552856 95.47767639 C-4.13350433 94.5420134 -4.1314801 93.6063504 -4.12939453 92.64233398 C-4.13114685 91.6585376 -4.13289917 90.67474121 -4.13470459 89.66113281 C-4.13911864 86.3977687 -4.13618689 83.13445845 -4.1328125 79.87109375 C-4.13348561 77.61190277 -4.1344557 75.35271185 -4.13571167 73.09352112 C-4.13718799 68.3547395 -4.13503597 63.6159767 -4.13037109 58.87719727 C-4.1246706 52.78805006 -4.12795527 46.69894689 -4.13394356 40.60980129 C-4.13754816 35.94399175 -4.13641111 31.27819274 -4.13381577 26.61238289 C-4.13314638 24.36638445 -4.13397531 22.12038508 -4.13629532 19.87438774 C-4.13882053 16.74232302 -4.13498325 13.61033077 -4.12939453 10.47827148 C-4.13141876 9.54058426 -4.13344299 8.60289703 -4.13552856 7.63679504 C-4.11071294 0.17127971 -4.11071294 0.17127971 0 0 Z " fill="#262527" transform="translate(139,122.875)"/>
<path d="M0 0 C0.52207031 0.28875 1.04414063 0.5775 1.58203125 0.875 C0.92203125 3.185 0.26203125 5.495 -0.41796875 7.875 C-2.11953125 7.38 -2.11953125 7.38 -3.85546875 6.875 C-8.31916266 5.76106569 -12.83634277 5.22862953 -17.41796875 5.875 C-18.07796875 6.535 -18.73796875 7.195 -19.41796875 7.875 C-19.39985659 9.95249775 -19.39985659 9.95249775 -18.41796875 11.875 C-16.6941454 12.89600651 -16.6941454 12.89600651 -14.5234375 13.40234375 C-13.73259766 13.63759766 -12.94175781 13.87285156 -12.12695312 14.11523438 C-10.45785318 14.57679029 -8.78858456 15.03773672 -7.11914062 15.49804688 C-2.13358732 16.98198691 0.85818106 18.13755088 3.58203125 22.875 C4.06488513 26.73783104 3.94515961 29.0761176 2.33203125 32.625 C-0.6109652 36.40885258 -3.80336 38.57087144 -8.41796875 39.875 C-16.13734862 40.67308205 -23.45967838 39.35414518 -30.41796875 35.875 C-29.91965151 32.18745243 -29.31729232 30.27009338 -26.41796875 27.875 C-25.46921875 28.37 -24.52046875 28.865 -23.54296875 29.375 C-18.93857678 31.37117811 -14.36121907 31.34492508 -9.41796875 30.875 C-8.42796875 30.38 -8.42796875 30.38 -7.41796875 29.875 C-6.76241756 27.34766765 -6.76241756 27.34766765 -6.41796875 24.875 C-7.50335938 24.64425781 -8.58875 24.41351563 -9.70703125 24.17578125 C-11.15254868 23.84725456 -12.59785016 23.51777667 -14.04296875 23.1875 C-15.11224609 22.96416992 -15.11224609 22.96416992 -16.203125 22.73632812 C-21.48120308 21.50154839 -24.53127194 19.67200381 -28.41796875 15.875 C-30.05188602 12.60716546 -30.08993409 9.3933091 -29.41796875 5.875 C-22.93888851 -5.32206821 -10.61481436 -5.35388185 0 0 Z " fill="#2C2325" transform="translate(138.41796875,365.125)"/>
<path d="M0 0 C3.88446678 2.58964452 6.69907021 5.64814041 8.8125 9.875 C9.69197453 15.93081034 8.69945128 20.04941802 5.39453125 25.1484375 C2.64848777 28.14535408 -0.02657036 29.65402305 -4.01953125 30.4140625 C-9.65529508 30.57656159 -13.38431824 30.40328689 -17.8125 26.6875 C-21.59826538 22.76821178 -22.95992373 19.92318644 -23.5625 14.5 C-22.97389171 8.81011982 -20.78553543 5.35610601 -16.625 1.5 C-11.38219552 -1.99520299 -5.78544111 -2.04192039 0 0 Z " fill="#292627" transform="translate(355.1875,172.125)"/>
<path d="M0 0 C2.03125 1.38671875 2.03125 1.38671875 4.03125 4.38671875 C2.38125 6.03671875 0.73125 7.68671875 -0.96875 9.38671875 C-2.96875 8.38671875 -4.96875 7.38671875 -6.96875 6.38671875 C-12.17335087 5.87547776 -16.53320931 5.52539434 -21.09375 8.26171875 C-24.43815355 12.05204277 -24.24088904 15.00745334 -24.19140625 19.90625 C-23.90583398 23.0876253 -23.0229784 24.95207768 -20.96875 27.38671875 C-17.64658762 29.60149367 -16.41841677 29.68339582 -12.53125 29.69921875 C-11.11005859 29.72435547 -11.11005859 29.72435547 -9.66015625 29.75 C-6.59749691 29.33660766 -5.24256441 28.42401346 -2.96875 26.38671875 C0.39845387 27.78004449 2.0172024 29.36564735 4.03125 32.38671875 C-1.96502796 37.65617514 -7.39635607 40.0673097 -15.34375 39.80078125 C-21.38512223 38.8478267 -26.90602993 35.9855749 -30.96875 31.38671875 C-35.11617034 25.16558824 -35.77426509 19.73962575 -34.96875 12.38671875 C-32.86934597 4.62689624 -27.25327257 0.86723182 -20.59375 -2.98828125 C-12.79909866 -4.84415062 -7.03545992 -3.70697493 0 0 Z " fill="#2D2624" transform="translate(344.96875,365.61328125)"/>
<path d="M0 0 C1.28753174 0.00607269 1.28753174 0.00607269 2.60107422 0.01226807 C3.92147705 0.00939789 3.92147705 0.00939789 5.26855469 0.00646973 C7.13135056 0.00510755 8.99415591 0.00880625 10.85693359 0.01715088 C13.71457158 0.02785 16.57158088 0.01725675 19.42919922 0.00445557 C21.23649228 0.00577716 23.04378495 0.00833954 24.85107422 0.01226807 C25.70942871 0.0082196 26.5677832 0.00417114 27.45214844 0 C33.49615677 0.04797562 33.49615677 0.04797562 35.72607422 2.27789307 C35.91357422 4.84039307 35.91357422 4.84039307 35.72607422 7.27789307 C34.72607422 8.27789307 34.72607422 8.27789307 31.3996582 8.39141846 C29.92381865 8.39125936 28.44797353 8.38556621 26.97216797 8.37554932 C26.19672134 8.37413437 25.42127472 8.37271942 24.62232971 8.3712616 C22.13603928 8.36564652 19.64983762 8.35309153 17.16357422 8.34039307 C15.48193489 8.33538001 13.80029416 8.33081676 12.11865234 8.32672119 C7.98775856 8.3156722 3.85693146 8.29839751 -0.27392578 8.27789307 C-0.27392578 10.91789307 -0.27392578 13.55789307 -0.27392578 16.27789307 C0.78109131 16.27265625 1.8361084 16.26741943 2.9230957 16.26202393 C6.82364052 16.24397406 10.72418161 16.23246112 14.62475586 16.22296143 C16.31551737 16.21792117 18.00627451 16.21108902 19.69702148 16.20245361 C22.12208129 16.1903745 24.54708366 16.18466184 26.97216797 16.18023682 C28.11279945 16.17249489 28.11279945 16.17249489 29.276474 16.16459656 C31.09339992 16.16440069 32.91020549 16.2159203 34.72607422 16.27789307 C35.72607422 17.27789307 35.72607422 17.27789307 35.91357422 19.71539307 C35.72607422 22.27789307 35.72607422 22.27789307 33.72607422 24.27789307 C30.73645318 24.47795609 27.84145072 24.55762229 24.85107422 24.54351807 C23.53067139 24.54638824 23.53067139 24.54638824 22.18359375 24.54931641 C20.32079788 24.55067858 18.45799252 24.54697988 16.59521484 24.53863525 C13.73757686 24.52793613 10.88056756 24.53852938 8.02294922 24.55133057 C6.21565616 24.55000898 4.40836349 24.5474466 2.60107422 24.54351807 C1.74271973 24.54756653 0.88436523 24.55161499 0 24.55578613 C-6.04400833 24.50781051 -6.04400833 24.50781051 -8.27392578 22.27789307 C-8.53271484 20.24664307 -8.53271484 20.24664307 -8.53955078 17.77789307 C-8.54212891 16.89101807 -8.54470703 16.00414307 -8.54736328 15.09039307 C-8.53576172 13.69820557 -8.53576172 13.69820557 -8.52392578 12.27789307 C-8.53166016 11.34976807 -8.53939453 10.42164307 -8.54736328 9.46539307 C-8.54478516 8.57851807 -8.54220703 7.69164307 -8.53955078 6.77789307 C-8.53729492 5.96320557 -8.53503906 5.14851807 -8.53271484 4.30914307 C-7.89766704 -0.67538306 -4.13560001 0.03282722 0 0 Z " fill="#272426" transform="translate(334.27392578125,117.72210693359375)"/>
<path d="M0 0 C3.3 0 6.6 0 10 0 C14.59433555 8.77100423 18.30649376 17.82477702 22 27 C23.83356058 24.24965913 25.05461177 21.73849066 26.34765625 18.7109375 C26.78787109 17.68742187 27.22808594 16.66390625 27.68164062 15.609375 C28.13732422 14.54203125 28.59300781 13.4746875 29.0625 12.375 C29.96790219 10.25689222 30.87534329 8.13965443 31.78515625 6.0234375 C32.38662476 4.61457275 32.38662476 4.61457275 33.00024414 3.17724609 C34 1 34 1 35 0 C38.00003445 -0.14177857 40.99757235 -0.04228771 44 0 C41.41459088 8.41652968 37.90503138 16.38761031 34.375 24.4375 C33.77049256 25.82472134 33.16632329 27.2120901 32.5625 28.59960938 C28.22844653 38.54310693 28.22844653 38.54310693 27 41 C23.7 41 20.4 41 17 41 C14.57428285 35.48445353 12.15332756 29.96685172 9.73681641 24.44726562 C8.91358832 22.56875859 8.08904786 20.69082613 7.26318359 18.81347656 C6.07827095 16.11932946 4.89804972 13.42317037 3.71875 10.7265625 C3.16096863 9.46243027 3.16096863 9.46243027 2.59191895 8.17276001 C2.25156616 7.39210175 1.91121338 6.61144348 1.56054688 5.80712891 C1.2585437 5.11873932 0.95654053 4.43034973 0.64538574 3.72109985 C0 2 0 2 0 0 Z " fill="#282222" transform="translate(237,363)"/>
<path d="M0 0 C2.97 0 5.94 0 9 0 C9 13.53 9 27.06 9 41 C6.03 41 3.06 41 0 41 C0 27.47 0 13.94 0 0 Z " fill="#231F20" transform="translate(290,363)"/>
<path d="M0 0 C4 1 4 1 6.140625 3.94140625 C6.85639433 5.14098262 7.5591527 6.34839984 8.25 7.5625 C8.61351562 8.17802734 8.97703125 8.79355469 9.3515625 9.42773438 C10.2456088 10.94526033 11.12431628 12.47180439 12 14 C12.93899975 12.60517513 13.87612511 11.20908834 14.8125 9.8125 C15.63621094 8.58660156 15.63621094 8.58660156 16.4765625 7.3359375 C18.09403566 4.91895266 18.09403566 4.91895266 19.6875 1.9375 C20.3371875 0.9784375 20.3371875 0.9784375 21 0 C21.99 0 22.98 0 24 0 C24 7.26 24 14.52 24 22 C23.01 22 22.02 22 21 22 C20.67 17.38 20.34 12.76 20 8 C19.0925 9.65 18.185 11.3 17.25 13 C15.703125 15.8125 15.703125 15.8125 14 18 C12.68 18 11.36 18 10 18 C8.35 15.03 6.7 12.06 5 9 C4.67 13.29 4.34 17.58 4 22 C2.68 22 1.36 22 0 22 C0 14.74 0 7.48 0 0 Z " fill="#483235" transform="translate(184,419)"/>
<path d="M0 0 C10.89 0 21.78 0 33 0 C33 0.33 33 0.66 33 1 C30.69 1 28.38 1 26 1 C26 3.31 26 5.62 26 8 C17.42 8 8.84 8 0 8 C0 5.36 0 2.72 0 0 Z " fill="#DD8692" transform="translate(334,126)"/>
<path d="M0 0 C1.8975 -0.061875 3.795 -0.12375 5.75 -0.1875 C7.35101563 -0.23970703 7.35101563 -0.23970703 8.984375 -0.29296875 C12.34512289 0.03352878 13.6734308 0.58479959 16 3 C16.56210141 6.86444722 16.72953879 9.01859663 14.359375 12.20703125 C10.05705137 15.47651229 5.21571909 14.2267704 0 14 C0 9.38 0 4.76 0 0 Z " fill="#FB9794" transform="translate(205,371)"/>
<path d="M0 0 C2.375 1.5 2.375 1.5 4 4 C4.6293407 7.51440821 4.63147635 10.7370473 3 14 C-0.26205554 15.63102777 -3.43555389 15.51981506 -7 15 C-9 14 -9 14 -10 12 C-10.75912409 5.16788321 -10.75912409 5.16788321 -8.375 1.5 C-5.27859404 -0.45562482 -3.60146865 -0.60024477 0 0 Z " fill="#F0EDB5" transform="translate(351,179)"/>
<path d="M0 0 C0.99 0 1.98 0 3 0 C3 2.97 3 5.94 3 9 C6.96 9 10.92 9 15 9 C15 6.03 15 3.06 15 0 C15.99 0 16.98 0 18 0 C18 7.26 18 14.52 18 22 C17.01 22 16.02 22 15 22 C15 18.7 15 15.4 15 12 C11.04 12 7.08 12 3 12 C3 15.3 3 18.6 3 22 C2.01 22 1.02 22 0 22 C0 14.74 0 7.48 0 0 Z " fill="#3A2E2A" transform="translate(297,419)"/>
<path d="M0 0 C5.28 0 10.56 0 16 0 C16 0.99 16 1.98 16 3 C11.71 3 7.42 3 3 3 C3 5.31 3 7.62 3 10 C6.63 10 10.26 10 14 10 C14 10.66 14 11.32 14 12 C10.37 12 6.74 12 3 12 C3 14.31 3 16.62 3 19 C7.29 19 11.58 19 16 19 C16 19.99 16 20.98 16 22 C10.72 22 5.44 22 0 22 C0 14.74 0 7.48 0 0 Z " fill="#352929" transform="translate(228,419)"/>
<path d="M0 0 C0 0.99 0 1.98 0 3 C-3.63 3 -7.26 3 -11 3 C-11.33 4.32 -11.66 5.64 -12 7 C-10.84371094 7.29003906 -10.84371094 7.29003906 -9.6640625 7.5859375 C-8.66117187 7.84632813 -7.65828125 8.10671875 -6.625 8.375 C-5.62726563 8.63023437 -4.62953125 8.88546875 -3.6015625 9.1484375 C-1 10 -1 10 1 12 C1.375 14.9375 1.375 14.9375 1 18 C-0.77307007 20.21633759 -2.0979308 20.88354434 -4.90625 21.24609375 C-8.74283691 21.36777654 -11.71480146 21.19013236 -15 19 C-14.505 17.515 -14.505 17.515 -14 16 C-13.34 16.33 -12.68 16.66 -12 17 C-10.45976004 17.06950541 -8.91665012 17.08452357 -7.375 17.0625 C-6.55773437 17.05347656 -5.74046875 17.04445313 -4.8984375 17.03515625 C-4.27195312 17.02355469 -3.64546875 17.01195312 -3 17 C-3.15563913 15.02944158 -3.15563913 15.02944158 -4 13 C-6.01631716 11.93349219 -6.01631716 11.93349219 -8.4375 11.375 C-12.82119205 10.17880795 -12.82119205 10.17880795 -15 8 C-15.375 5.0625 -15.375 5.0625 -15 2 C-11.33994863 -2.57506421 -5.08434575 -1.69478192 0 0 Z " fill="#3C2E2C" transform="translate(277,420)"/>
<path d="M0 0 C0.99 0 1.98 0 3 0 C3 7.26 3 14.52 3 22 C2.01 22 1.02 22 0 22 C-0.04898438 21.00097656 -0.09796875 20.00195312 -0.1484375 18.97265625 C-0.22320312 17.68230469 -0.29796875 16.39195312 -0.375 15.0625 C-0.44460937 13.77472656 -0.51421875 12.48695313 -0.5859375 11.16015625 C-0.72257813 10.11730469 -0.85921875 9.07445312 -1 8 C-1.66 7.67 -2.32 7.34 -3 7 C-1.125 1.125 -1.125 1.125 0 0 Z " fill="#312627" transform="translate(205,419)"/>
<path d="M0 0 C3.3 0.99 6.6 1.98 10 3 C10 3.66 10 4.32 10 5 C7.03 4.67 4.06 4.34 1 4 C0.67 2.68 0.34 1.36 0 0 Z " fill="#2D2525" transform="translate(262,436)"/>
<path d="M0 0 C0.66 0.33 1.32 0.66 2 1 C1.62403791 3.78211944 1.32681541 5.5879284 -0.4375 7.8125 C-2 9 -2 9 -4 9 C-2.80100302 5.9168649 -1.52299523 2.93720508 0 0 Z " fill="#3A2B2D" transform="translate(201,425)"/>
<path d="M0 0 C2.64 0.33 5.28 0.66 8 1 C8 1.99 8 2.98 8 4 C3.545 3.01 3.545 3.01 -1 2 C-0.67 1.34 -0.34 0.68 0 0 Z " fill="#332927" transform="translate(269,419)"/>
</svg>
